<?xml version="1.0" encoding="utf-8"?>
<!-- Generator: Adobe Illustrator 21.0.2, SVG Export Plug-In . SVG Version: 6.00 Build 0)  -->
<svg version="1.1" id="Capa_1" xmlns="http://www.w3.org/2000/svg" xmlns:xlink="http://www.w3.org/1999/xlink" x="0px" y="0px"
	 viewBox="0 0 512 512" style="enable-background:new 0 0 512 512;" xml:space="preserve">
<style type="text/css">
	.st0{fill:#FFFFFF;}
</style>
<path class="st0" d="M256,0C114.8,0,0,114.8,0,256s114.8,256,256,256s256-114.8,256-256S397.2,0,256,0z M388.8,263L201.1,391
	c-1.4,1-3.1,1.5-4.8,1.5c-1.4,0-2.7-0.3-4-1c-2.8-1.5-4.5-4.4-4.5-7.5V128c0-3.2,1.7-6.1,4.5-7.5c2.8-1.5,6.2-1.3,8.8,0.5l187.7,128
	c2.3,1.6,3.7,4.2,3.7,7C392.5,258.8,391.1,261.5,388.8,263z"/>
</svg>
